# xmcd CD database file
#
# Track frame offsets:
#	150
#	11495
#	24314
#	38525
#	52733
#	57239
#	71957
#	85573
#	99147
#	112486
#	122834
#	135546
#	150117
#	164444
#	179689
#	193520
#	208065
#	220509
#	234690
#	245182
#	266441
#	281162
#	295387
#	307636
#	321785
#
# Disc length: 4481 seconds
#
# Revision: 0
# Processed by: cddbd v1.5.2PL0 Copyright (c) Steve Scherf et al.
# Submitted via: CDex 1.70beta2
#
DISCID=5e117f19
DTITLE=Blind Willie McTell - Ultimate Blues Collection Disc 1
DYEAR=2013
DGENRE=Blues
TTITLE0=Statesboro Blues
TTITLE1=Dark Night Blues
TTITLE2=Atlanta Strut
TTITLE3=Death Cell Blues
TTITLE4=Early Life
TTITLE5=Savannah Mama
TTITLE6=Scarey Day Blues
TTITLE7=B and O Blues No. 2 (Take 1)
TTITLE8=Lord Have Mercy If You Please
TTITLE9=A Married Man's Fool
TTITLE10=Bell Street Blues
TTITLE11=Travelin' Blues
TTITLE12=Talkin' To Myself
TTITLE13=Lay Some Flowers
TTITLE14=Pal Of Mine
TTITLE15=Drive Away Blues
TTITLE16=God Don't Like It
TTITLE17=Mama, Let Me Scoop For You
TTITLE18=Mr. McTell Got The Blues
TTITLE19=The Dyin' Crapshooter's Blues
TTITLE20=Razor Ball
TTITLE21=Love Changing Blues
TTITLE22=Kill-It-Kid Rag
TTITLE23=Cold Winter Day
TTITLE24=Writin' Paper Blues
EXTD=YEAR: 2013
EXTT0=
EXTT1=
EXTT2=
EXTT3=
EXTT4=
EXTT5=
EXTT6=
EXTT7=
EXTT8=
EXTT9=
EXTT10=
EXTT11=
EXTT12=
EXTT13=
EXTT14=
EXTT15=
EXTT16=
EXTT17=
EXTT18=
EXTT19=
EXTT20=
EXTT21=
EXTT22=
EXTT23=
EXTT24=
PLAYORDER=
